# xmcd CD database file
#
# Track frame offsets:
#	644
#	21763
#	37663
#	57960
#	75892
#	90810
#	111125
#	131852
#	150559
#	164766
#	186364
#	208699
#	225223
#	245393
#	264441
#
# Disc length: 3973 seconds
#
# Revision: 0
# Processed by: cddbd v1.5.2PL0 Copyright (c) Steve Scherf et al.
# Submitted via: CDex 1.81
#
DISCID=b50f7d0f
DTITLE=Lamberjack Big-Band - Lambert Jazz Open 2016
DYEAR=2016
DGENRE=Jazz
TTITLE0=Feeling Good
TTITLE1=Theoretical Love
TTITLE2=Black Smoke
TTITLE3=Blame It On The Boogie
TTITLE4=Crazy In Love
TTITLE5=I'm So Excited
TTITLE6=Something's Got A Hold On Me
TTITLE7=Listen
TTITLE8=Respect
TTITLE9=If I Ain't Got You
TTITLE10=Get Here 
TTITLE11=Cheek To Cheek
TTITLE12=Six
TTITLE13=Loecked Out Of Heaven
TTITLE14=Free Again
EXTD=YEAR: 2016
EXTT0=
EXTT1=
EXTT2=
EXTT3=
EXTT4=
EXTT5=
EXTT6=
EXTT7=
EXTT8=
EXTT9=
EXTT10=
EXTT11=
EXTT12=
EXTT13=
EXTT14=
PLAYORDER=
